# AST/ASF file generated using VICON BodyLanguage
# -----------------------------------------------
:version 1.10
:name VICON
:units
  mass 1.0
  length 0.45
  angle deg
:documentation
   .ast/.asf automatically generated from VICON data using
   VICON BodyBuilder and BodyLanguage model FoxedUp or BRILLIANT.MOD
:root
   order TX TY TZ RX RY RZ
   axis XYZ
   position 0 0 0  
   orientation 0 0 0 
:bonedata
  begin
     id 1 
     name lhipjoint
     direction 0.576517 -0.752066 0.319413 
     length 2.45433 
     axis 0 0 0  XYZ
  end
  begin
     id 2 
     name lfemur
     direction 0.34202 -0.939693 0  
     length 7.54459  
     axis 0 0 20  XYZ
    dof rx ry rz
    limits (-160.0 20.0)
           (-70.0 70.0)
           (-60.0 70.0)
  end
  begin
     id 3 
     name ltibia
     direction 0.34202 -0.939693 0   
     length 7.73986   
     axis 0 0 20   XYZ
    dof rx
    limits (-10.0 170.0)
  end
  begin
     id 4 
     name lfoot
     direction 0.090693 -0.249177 0.964202   
     length 2.28437   
     axis -90 7.62852e-016 20   XYZ
    dof rx rz
    limits (-45.0 90.0)
           (-70.0 20.0)
  end
  begin
     id 5 
     name ltoes
     direction 1.5356e-011 -4.21928e-011 1   
     length 1.14243   
     axis -90 7.62852e-016 20   XYZ
    dof rx
    limits (-90.0 20.0)
  end
  begin
     id 6 
     name rhipjoint
     direction -0.573937 -0.753736 0.320122   
     length 2.44889  
     axis 0 0 0  XYZ 
  end
  begin
     id 7 
     name rfemur
     direction -0.34202 -0.939693 0   
     length 7.50166   
     axis 0 0 -20   XYZ
    dof rx ry rz
    limits (-160.0 20.0)
           (-70.0 70.0)
           (-70.0 60.0)
  end
  begin
     id 8 
     name rtibia
     direction -0.34202 -0.939693 0   
     length 7.54266   
     axis 0 0 -20   XYZ
    dof rx
    limits (-10.0 170.0)
 end
 begin
     id 9 
     name rfoot
     direction -0.114017 -0.31326 0.942798   
     length 2.34212  
     axis -90 -7.62852e-016 -20   XYZ
    dof rx rz
    limits (-45.0 90.0)
           (-20.0 70.0)
  end
  begin
     id 10 
     name rtoes
     direction -1.53557e-011 -4.21867e-011 1   
     length 1.16246   
     axis -90 -7.62852e-016 -20   XYZ
    dof rx
    limits (-90.0 20.0)
  end
  begin
     id 11 
     name lowerback
     direction -0.0228371 0.999155 -0.034167   
     length 2.0537   
     axis 0 0 0   XYZ
    dof rx ry rz
    limits (-20.0 45.0)
           (-30.0 30.0)
           (-30.0 30.0)
  end
  begin
     id 12 
     name upperback
     direction 0.0198981 0.999794 0.00389455   
     length 2.05302   
     axis 0 0 0   XYZ
    dof rx ry rz
    limits (-20.0 45.0)
           (-30.0 30.0)
           (-30.0 30.0)
  end
  begin
     id 13 
     name thorax
     direction 0.0304566 0.99935 0.0192987   
     length 2.05315   
     axis 0 0 0   XYZ
    dof rx ry rz
    limits (-20.0 45.0)
           (-30.0 30.0)
           (-30.0 30.0)
  end
  begin
     id 14 
     name lowerneck
     direction -0.0196762 0.99417 0.106017   
     length 1.82056   
     axis 0 0 0   XYZ
    dof rx ry rz
    limits (-20.0 45.0)
           (-30.0 30.0)
           (-30.0 30.0)
  end
  begin
     id 15 
     name upperneck
     direction 0.00517787 0.9802 -0.197944   
     length 1.83835   
     axis 0 0 0   XYZ
    dof rx ry rz
    limits (-20.0 45.0)
           (-30.0 30.0)
           (-30.0 30.0)
  end
  begin
     id 16
     name head
     direction 0.00211419 0.996945 -0.078081  
     length 1.85629  
     axis 0 0 0   XYZ
    dof rx ry rz
    limits (-20.0 45.0)
           (-30.0 30.0)
           (-30.0 30.0)
  end
  begin
     id 17 
     name lclavicle
     direction 0.930001 0.365811 -0.0357824  
     length 3.81961  
     axis 0 0 0   XYZ
    dof ry rz
    limits (-20.0 10.0)
           (0.0 20.0)
  end
  begin
     id 18 
     name lhumerus
     direction 1 -4.48968e-011 -3.06644e-027   
     length 5.14507   
     axis 180 -30 -90   XYZ
    dof rx ry rz
    limits (-60.0 90.0)
           (-90.0 90.0)
           (-90.0 90.0)
  end
  begin
     id 19
     name lradius
     direction 1 -4.48965e-011 9.06925e-028   
     length 3.50646   
     axis 180 -30 -90   XYZ
    dof rx
    limits (-10.0 170.0)
  end
  begin
     id 20
     name lwrist
     direction 1 -4.48957e-011 1.03922e-027   
     length 1.75323   
     axis -2.56395e-016 90 90   XYZ
    dof ry
    limits (-180.0 0.0)
 end
  begin
     id 21 
     name lhand
     direction 1 -4.48967e-011 2.08017e-027   
     length 0.629969   
     axis -1.32723e-015 90 90   XYZ
    dof rx rz
    limits (-90.0 90.0)
           (-45.0 45.0)
  end
  begin
     id 22 
     name lfingers
     direction 1 -4.49089e-011 4.20095e-027   
     length 0.507897   
     axis -2.6545e-015 90 90   XYZ
    dof rx
    limits (0.0 90.0)
  end
  begin
     id 23
     name lthumb
     direction 0.707107 -6.35001e-011 0.707107   
     length 0.729241   
     axis -90 45 5.05613e-014   XYZ
    dof rx rz
    limits (-45.0 45.0)
           (-45.0 45.0)
  end
  begin
     id 24 
     name rclavicle
     direction -0.881882 0.464123 -0.0829113   
     length 3.47515  
     axis 0 0 0   XYZ 
    dof ry rz
    limits (-10.0 20.0)
           (-20.0 0.0)
  end
  begin
     id 25 
     name rhumerus
     direction -1 -4.48961e-011 -1.55672e-027  
     length 5.232   
     axis 180 30 90   XYZ
    dof rx ry rz
    limits (-90.0 60.0)
           (-90.0 90.0)
           (-90.0 90.0)
  end
  begin
     id 26 
     name rradius
     direction -1 -4.48963e-011 6.18178e-029   
     length 3.65641   
     axis 180 30 90   XYZ
    dof rx
    limits (-10.0 170.0)
  end
  begin
     id 27 
     name rwrist
     direction -1 -4.48982e-011 1.04136e-027   
     length 1.8282   
     axis -2.56395e-016 -90 -90   XYZ
    dof ry
    limits (-180.0 0.0)
  end
  begin
     id 28
     name rhand
     direction -1 -4.48929e-011 2.07378e-027   
     length 0.656807   
     axis -1.32723e-015 -90 -90   XYZ
    dof rx rz
    limits (-90.0 90.0)
           (-45.0 45.0)
  end
  begin
     id 29
     name rfingers
     direction -1 -4.489e-011 4.13816e-027   
     length 0.529535   
     axis -2.6545e-015 -90 -90   XYZ
    dof rx
    limits (0.0 90.0)
  end
  begin
     id 30
     name rthumb
     direction -0.707107 -6.34843e-011 0.707107   
     length 0.760309   
     axis -90 -45 -5.05613e-014   XYZ
    dof rx rz
    limits (-45.0 45.0)
           (-45.0 45.0)
  end
:hierarchy
  begin
    root lhipjoint rhipjoint lowerback
    lhipjoint lfemur
    lfemur ltibia
    ltibia lfoot
    lfoot ltoes
    rhipjoint rfemur
    rfemur rtibia
    rtibia rfoot
    rfoot rtoes
    lowerback upperback
    upperback thorax
    thorax lowerneck lclavicle rclavicle
    lowerneck upperneck
    upperneck head
    lclavicle lhumerus
    lhumerus lradius
    lradius lwrist
    lwrist lhand lthumb
    lhand lfingers
    rclavicle rhumerus
    rhumerus rradius
    rradius rwrist
    rwrist rhand rthumb
    rhand rfingers
  end

#!OML:ASF H:\ManfredETheater\Project 1\Capture day 1\Session 1\subject.ASF
:FULLY-SPECIFIED
:DEGREES
33
root 2.25847 16.3204 20.7824 -154.937 0.510857 -186.96
lowerback 15.9692 -2.45403 -5.33531
upperback -1.81815 -4.16784 1.73445
thorax -10.469 -1.61754 5.94583
lowerneck -23.1586 -2.82617 -5.18437
upperneck -2.97041 -1.24466 1.77378
head 2.68378 0.0229469 1.2928
rclavicle -4.90998e-014 9.93923e-015
rhumerus -80.2371 -0.0275154 -75.442
rradius 76.5387
rwrist -12.5665
rhand -29.536 13.9883
rfingers 7.12502
rthumb -2.86937 -15.9721
lclavicle -4.90998e-014 9.93923e-015
lhumerus -23.68 -19.5787 89.3748
lradius 134.748
lwrist 19.1195
lhand -21.0897 -10.1106
lfingers 7.12502
lthumb 5.28776 19.8034
rfemur -77.3519 -8.02741 19.2858
rtibia 61.2998
rfoot -12.6247 -0.827455
rtoes -38.9492
lfemur 2.17442 -9.98064 -32.1984
ltibia 37.3401
lfoot 27.8575 -8.51024
ltoes 15.4007
34
root 2.26504 16.3431 20.2049 -155.263 0.677319 -187.258
lowerback 16.2869 -2.33356 -5.49183
upperback -1.7349 -4.0662 1.65929
thorax -10.5689 -1.56054 5.94882
lowerneck -23.2023 -2.89978 -5.33055
upperneck -2.99991 -1.27968 1.62716
head 2.6809 0.00565405 1.26686
rclavicle 1.11319e-014 1.78906e-014
rhumerus -78.9149 -1.12832 -75.2297
rradius 76.9243
rwrist -12.5461
rhand -29.5953 14.1362
rfingers 7.12502
rthumb -2.92665 -15.8234
lclavicle 1.11319e-014 1.78906e-014
lhumerus -24.8304 -18.4374 89.8086
lradius 132.179
lwrist 18.0525
lhand -21.0897 -9.79413
lfingers 7.12502
lthumb 5.28778 20.1199
rfemur -76.2595 -8.402 19.7462
rtibia 60.3001
rfoot -12.2996 -0.754935
rtoes -38.856
lfemur 1.27655 -9.3436 -32.5459
ltibia 41.0685
lfoot 26.6036 -7.42239
ltoes 14.4993
35
root 2.27238 16.3583 19.6283 -155.641 0.819067 -187.411
lowerback 16.6467 -2.18447 -5.55249
upperback -1.62227 -3.90762 1.62058
thorax -10.6714 -1.48218 5.92494
lowerneck -23.2162 -2.96307 -5.4348
upperneck -3.07142 -1.30915 1.45893
head 2.66036 -0.00804045 1.22815
rclavicle 1.63003e-014 4.05521e-014
rhumerus -77.3573 -2.21495 -75.1536
rradius 77.2168
rwrist -12.5479
rhand -29.6039 14.259
rfingers 7.12502
rthumb -2.93497 -15.7005
lclavicle 1.63003e-014 4.05521e-014
lhumerus -26.0599 -17.2751 90.3737
lradius 129.314
lwrist 16.5235
lhand -21.2175 -9.56642
lfingers 7.12502
lthumb 5.16431 20.3506
rfemur -74.9747 -8.72664 20.2964
rtibia 59.7249
rfoot -12.0148 -0.603032
rtoes -38.2043
lfemur 0.113904 -8.6861 -32.6992
ltibia 45.1432
lfoot 25.8178 -6.60401
ltoes 14.3864
36
root 2.28072 16.3667 19.0514 -156.058 0.948024 -187.382
lowerback 17.0225 -2.00924 -5.50406
upperback -1.48546 -3.68935 1.62583
thorax -10.7671 -1.3822 5.8717
lowerneck -23.2118 -3.00531 -5.47326
upperneck -3.16648 -1.32666 1.26566
head 2.62906 -0.0162921 1.17238
rclavicle 6.16232e-014 9.14409e-015
rhumerus -75.5707 -3.23636 -75.2508
rradius 77.4129
rwrist -12.59
rhand -29.5717 14.366
rfingers 7.12502
rthumb -2.90383 -15.594
lclavicle 6.16232e-014 9.14409e-015
lhumerus -27.3348 -16.0697 90.9943
lradius 126.212
lwrist 14.8438
lhand -21.4614 -9.39403
lfingers 7.12502
lthumb 4.92889 20.5286
rfemur -73.4915 -8.9765 20.9534
rtibia 59.552
rfoot -11.8686 -0.456296
rtoes -37.1783
lfemur -1.30156 -8.00461 -32.6271
ltibia 49.4663
lfoot 25.3652 -6.15862
ltoes 15.1955
37
root 2.29059 16.3678 18.4741 -156.501 1.06082 -187.154
lowerback 17.4072 -1.81754 -5.33775
upperback -1.33362 -3.42048 1.68038
thorax -10.8601 -1.26497 5.79123
lowerneck -23.2011 -3.01715 -5.44043
upperneck -3.25769 -1.32435 1.05921
head 2.59708 -0.0164633 1.10301
rclavicle -1.31198e-014 -1.82882e-014
rhumerus -73.5677 -4.13491 -75.5456
rradius 77.5199
rwrist -12.6778
rhand -29.5071 14.4353
rfingers 7.12502
rthumb -2.8414 -15.5255
lclavicle -1.31198e-014 -1.82882e-014
lhumerus -28.631 -14.8155 91.6031
lradius 122.915
lwrist 13.2827
lhand -21.7846 -9.22966
lfingers 7.12502
lthumb 4.61678 20.7
rfemur -71.8065 -9.13642 21.7201
rtibia 59.7334
rfoot -11.9181 -0.385064
rtoes -35.6088
lfemur -2.93473 -7.30818 -32.3063
ltibia 53.9595
lfoot 24.9259 -6.02042
ltoes 16.6558
38
root 2.30228 16.3614 17.8967 -156.966 1.15091 -186.726
lowerback 17.8075 -1.6162 -5.05167
upperback -1.17459 -3.1089 1.78763
thorax -10.9608 -1.13379 5.68809
lowerneck -22.7486 -2.96899 -5.29161
upperneck -3.92109 -1.31156 0.72184
head 2.71801 -0.0165077 1.09829
rclavicle 3.45885e-014 3.02153e-014
rhumerus -71.3614 -4.86878 -76.0471
rradius 77.5508
rwrist -12.7864
rhand -29.446 14.4354
rfingers 7.12502
rthumb -2.78241 -15.5262
lclavicle 3.45885e-014 3.02153e-014
lhumerus -29.9148 -13.5087 92.1553
lradius 119.448
lwrist 12.0866
lhand -22.1038 -9.06287
lfingers 7.12502
lthumb 4.30851 20.8733
rfemur -69.917 -9.19046 22.5749
rtibia 60.1992
rfoot -12.2073 -0.473236
rtoes -33.4081
lfemur -4.74909 -6.6001 -31.7236
ltibia 58.5569
lfoot 24.2869 -6.0112
ltoes 18.4866
39
root 2.31599 16.347 17.3206 -157.446 1.21275 -186.098
lowerback 18.2269 -1.41143 -4.63705
upperback -1.01098 -2.76069 1.94654
thorax -11.0725 -0.992403 5.5571
lowerneck -22.7673 -2.93274 -5.141
upperneck -3.95271 -1.2813 0.522375
head 2.70378 -0.00636994 1.00618
rclavicle -9.93923e-015 -2.46493e-014
rhumerus -68.9619 -5.4063 -76.7505
rradius 77.522
rwrist -12.8811
rhand -29.3911 14.4189
rfingers 7.12502
rthumb -2.72943 -15.5434
lclavicle -9.93923e-015 -2.46493e-014
lhumerus -31.1492 -12.1656 92.6165
lradius 115.818
lwrist 11.4136
lhand -22.3577 -8.90801
lfingers 7.12502
lthumb 4.06338 21.033
rfemur -67.8266 -9.1292 23.5091
rtibia 60.8569
rfoot -12.8361 -0.876694
rtoes -30.9996
lfemur -6.72301 -5.87531 -30.8717
ltibia 63.2088
lfoot 23.2245 -5.95285
ltoes 19.8908
40
root 2.33173 16.3253 16.7468 -157.937 1.23041 -185.275
lowerback 18.675 -1.34021 -4.11625
upperback -0.841356 -2.34961 2.15804
thorax -11.1928 -0.741285 5.38672
lowerneck -22.8039 -2.88857 -4.96821
upperneck -3.95584 -1.24924 0.347572
head 2.70326 0.00363395 0.918918
rclavicle 1.86858e-014 -2.3059e-014
rhumerus -66.3825 -5.72372 -77.64
rradius 77.4642
rwrist -12.9304
rhand -29.3367 14.3765
rfingers 7.12502
rthumb -2.67687 -15.5864
lclavicle 1.86858e-014 -2.3059e-014
lhumerus -32.3032 -10.8012 92.9632
lradius 112.019
lwrist 11.2889
lhand -22.5185 -8.85478
lfingers 7.12502
lthumb 3.90805 21.0891
rfemur -65.5341 -8.95194 24.5222
rtibia 61.606
rfoot -13.8215 -1.64106
rtoes -28.7556
lfemur -8.85387 -5.1258 -29.7349
ltibia 67.8732
lfoot 21.641 -5.7518
ltoes 20.3856
41
root 2.34945 16.298 16.1761 -158.423 1.18942 -184.252
lowerback 19.1405 -1.18468 -3.38544
upperback -0.68028 -1.93429 2.41962
thorax -11.3395 -0.565711 5.16051
lowerneck -22.8401 -2.84866 -4.79017
upperneck -3.95044 -1.2272 0.202087
head 2.70659 0.00899844 0.839814
rclavicle -1.86858e-014 1.35174e-014
rhumerus -63.6421 -5.80103 -78.6928
rradius 77.4171
rwrist -12.8975
rhand -29.2793 14.3066
rfingers 7.12502
rthumb -2.62144 -15.657
lclavicle -1.86858e-014 1.35174e-014
lhumerus -33.365 -9.44042 93.182
lradius 108.06
lwrist 11.6043
lhand -22.6418 -8.90522
lfingers 7.12502
lthumb 3.78902 21.0408
rfemur -63.042 -8.65072 25.6205
rtibia 62.3038
rfoot -15.0775 -2.78479
rtoes -27.1034
lfemur -11.1546 -4.34016 -28.2912
ltibia 72.4798
lfoot 19.6631 -5.38172
ltoes 20.2249
42
root 2.36912 16.266 15.6091 -158.885 1.08315 -183.038
lowerback 19.6057 -1.05605 -2.46431
upperback -0.526079 -1.49032 2.72682
thorax -11.4937 -0.383704 4.86196
lowerneck -22.8662 -2.82372 -4.61997
upperneck -3.95179 -1.22494 0.0850228
head 2.70685 0.00604386 0.769902
rclavicle 1.47101e-014 8.74653e-015
rhumerus -60.7559 -5.61897 -79.8829
rradius 77.4325
rwrist -12.7898
rhand -29.2098 14.219
rfingers 7.12502
rthumb -2.55436 -15.7455
lclavicle 1.47101e-014 8.74653e-015
lhumerus -34.3392 -8.12207 93.2646
lradius 103.959
lwrist 12.183
lhand -22.7915 -9.12071
lfingers 7.12502
lthumb 3.64445 20.8279
rfemur -60.393 -8.22506 26.8098
rtibia 62.9111
rfoot -16.5631 -4.27475
rtoes -26.3472
lfemur -13.6616 -3.51159 -26.5406
ltibia 77.0311
lfoot 17.4537 -4.86483
ltoes 19.8543
43
root 2.39148 16.2514 15.0386 -159.3 0.920822 -181.683
lowerback 20.045 -0.958238 -1.3849
upperback -0.390614 -1.02891 3.06472
thorax -11.6495 -0.199436 4.49519
lowerneck -22.8738 -2.81385 -4.45951
upperneck -3.96202 -1.24219 -0.0156606
head 2.70148 -0.00565924 0.705446
rclavicle -3.18055e-015 1.82882e-014
rhumerus -57.7651 -5.13577 -81.1816
rradius 77.5889
rwrist -12.6422
rhand -29.1255 14.1092
rfingers 7.12502
rthumb -2.47289 -15.8562
lclavicle -3.18055e-015 1.82882e-014
lhumerus -35.2695 -6.8804 93.2074
lradius 99.773
lwrist 12.7716
lhand -23.0666 -9.49916
lfingers 7.12502
lthumb 3.37876 20.4538
rfemur -57.5111 -7.70332 28.0514
rtibia 63.2814
rfoot -18.2289 -5.99846
rtoes -26.6308
lfemur -16.3668 -2.63175 -24.5272
ltibia 81.38
lfoot 15.1727 -4.28907
ltoes 19.3938
